<?xml version="1.0" standalone="no"?>
<!DOCTYPE svg PUBLIC "-//W3C//DTD SVG 20010904//EN"
 "http://www.w3.org/TR/2001/REC-SVG-20010904/DTD/svg10.dtd">
<svg version="1.0" xmlns="http://www.w3.org/2000/svg"
 width="1024.000000pt" height="768.000000pt" viewBox="0 0 1024.000000 768.000000"
 preserveAspectRatio="xMidYMid meet">

<g transform="translate(0.000000,768.000000) scale(0.100000,-0.100000)"
fill="#000000" stroke="none">
<path d="M5590 6924 c-300 -29 -558 -149 -773 -361 -147 -145 -240 -286 -302
-457 -49 -136 -66 -243 -66 -417 1 -218 39 -385 123 -538 73 -134 148 -256
242 -395 186 -275 251 -369 288 -421 113 -153 468 -678 468 -691 0 -12 92
-124 110 -134 29 -15 89 -12 122 8 27 15 206 273 324 465 75 122 421 677 525
840 257 407 342 649 325 936 -32 572 -414 1018 -977 1140 -95 20 -314 34 -409
25z m348 -240 c259 -53 494 -201 641 -403 50 -68 116 -214 141 -311 30 -118
38 -306 16 -420 -32 -174 -106 -331 -283 -608 -367 -572 -472 -736 -613 -965
-68 -109 -101 -150 -116 -140 -6 5 -101 143 -210 308 -293 440 -484 723 -589
870 -99 140 -162 247 -194 335 -111 300 -76 626 96 886 102 155 254 289 406
359 86 40 224 81 312 94 104 15 309 12 393 -5z"/>
<path d="M6185 6228 c-27 -15 -57 -57 -290 -388 -220 -313 -261 -370 -272
-370 -7 0 -13 4 -13 8 0 5 -8 17 -18 28 -9 10 -42 51 -71 89 -88 113 -221 264
-247 282 -13 8 -43 18 -67 20 -73 8 -140 -55 -124 -118 4 -13 30 -51 59 -85
29 -33 71 -82 93 -109 22 -26 62 -74 88 -104 27 -31 87 -107 134 -169 103
-136 132 -162 179 -162 48 0 71 18 127 97 117 165 310 440 325 463 9 14 48 70
88 125 143 202 184 267 184 295 0 72 -112 134 -175 98z"/>
<path d="M7115 3345 c-196 -43 -338 -130 -558 -345 -48 -47 -92 -86 -96 -88
-5 -2 -71 59 -147 135 -156 155 -257 223 -399 270 -70 23 -97 27 -210 27 -98
0 -145 -4 -190 -18 -158 -48 -265 -119 -447 -295 -61 -58 -116 -110 -124 -114
-18 -10 -29 -2 -184 140 -136 126 -232 193 -333 236 -191 80 -406 75 -596 -13
-98 -46 -193 -113 -346 -245 -77 -66 -203 -172 -279 -235 -373 -308 -475 -403
-511 -482 -35 -76 -40 -126 -19 -193 48 -153 237 -254 400 -212 32 9 66 17 74
19 13 3 16 -51 21 -422 4 -299 10 -437 19 -465 7 -23 31 -58 55 -81 l43 -42
238 -7 c132 -4 1219 -5 2417 -2 l2178 6 45 21 c31 16 51 34 67 64 22 40 22 51
27 476 l5 435 25 -5 c58 -12 167 -3 230 19 169 56 255 189 215 328 -9 32 -23
70 -31 85 -35 68 -149 177 -364 351 -69 56 -201 167 -295 247 -315 269 -367
306 -509 361 -144 56 -296 72 -421 44z m-2883 -230 c146 -31 240 -91 440 -284
49 -47 88 -89 88 -94 0 -13 -101 -107 -115 -107 -7 0 -48 38 -93 84 -93 98
-160 145 -255 181 -113 42 -253 30 -363 -31 -73 -40 -137 -92 -457 -367 -341
-291 -390 -330 -438 -346 -61 -20 -109 10 -109 68 0 30 9 44 68 101 37 36 134
124 216 195 83 72 211 184 285 250 195 173 248 217 317 263 138 94 263 120
416 87z m1583 0 c135 -35 187 -71 451 -321 177 -168 191 -180 359 -327 208
-182 245 -220 245 -250 0 -29 -41 -67 -73 -67 -29 0 -96 34 -134 69 -18 16
-65 57 -105 92 -40 35 -107 96 -148 134 -420 391 -464 426 -577 460 -62 19
-208 19 -261 1 -85 -30 -169 -97 -462 -366 -169 -155 -354 -312 -414 -351 -64
-42 -107 -49 -144 -23 -52 36 -13 96 174 269 65 60 151 139 189 176 39 36 97
90 130 120 33 30 62 56 65 59 3 3 55 50 115 106 151 137 234 192 335 220 63
17 185 17 255 -1z m1605 -12 c81 -22 197 -88 280 -158 91 -79 214 -187 265
-234 33 -31 98 -90 145 -132 47 -42 111 -100 144 -129 32 -28 73 -64 90 -79
73 -61 156 -149 156 -164 0 -30 -37 -57 -78 -57 -43 0 -80 22 -197 120 -44 36
-170 140 -279 231 -109 90 -224 186 -255 212 -87 75 -210 155 -274 177 -126
44 -282 33 -385 -27 -26 -15 -89 -65 -141 -111 -52 -46 -109 -91 -127 -99 -30
-15 -35 -15 -67 4 -46 28 -87 64 -87 78 0 19 199 207 279 263 164 115 357 153
531 105z m-1635 -467 c28 -14 66 -39 86 -58 162 -148 282 -254 324 -286 32
-23 147 -123 188 -161 l47 -45 0 -468 0 -468 -200 0 -200 0 0 306 0 306 -28
28 c-16 15 -46 33 -68 39 -53 15 -409 13 -452 -2 -46 -17 -90 -62 -102 -105
-5 -21 -10 -154 -10 -310 l0 -272 -177 2 -178 3 -3 476 -2 477 62 57 c34 31
89 80 122 108 83 68 195 168 286 253 98 94 133 122 161 133 41 17 92 12 144
-13z m-1548 -18 c47 -23 152 -114 178 -155 17 -25 17 -26 -33 -73 -74 -71 -87
-99 -87 -200 0 -73 4 -93 28 -143 33 -65 96 -120 161 -139 57 -16 196 -13 241
6 21 9 41 16 46 16 5 0 9 -173 9 -390 l0 -390 -172 2 -173 3 -5 296 c-6 328
-3 318 -75 350 -35 16 -69 19 -270 19 -126 0 -248 -5 -270 -10 -76 -17 -75
-14 -75 -356 l0 -304 -154 0 c-123 0 -156 3 -166 15 -9 11 -11 124 -9 472 l3
458 31 30 c43 42 225 198 325 280 47 38 114 94 150 125 81 70 123 99 158 110
38 12 109 2 159 -22z m3142 2 c24 -11 76 -49 115 -83 39 -35 114 -98 166 -142
52 -44 106 -89 120 -101 14 -12 48 -41 75 -64 28 -23 76 -67 108 -97 l57 -55
-2 -457 -3 -456 -185 0 -185 0 -3 305 -2 305 -30 28 c-30 27 -31 27 -198 30
-195 2 -324 0 -370 -8 -64 -11 -66 -24 -72 -360 l-5 -300 -152 -3 -153 -3 0
378 0 378 103 0 c165 1 268 54 316 164 55 128 34 226 -71 337 l-40 41 57 54
c67 63 117 99 165 116 53 19 138 16 189 -7z m1 -1097 c19 -25 20 -37 18 -192
l-3 -166 -95 0 -95 0 -3 169 c-3 211 -1 216 93 216 57 0 66 -3 85 -27z m-3225
-8 c24 -24 25 -28 25 -182 0 -87 -4 -165 -10 -173 -6 -10 -26 -14 -76 -12 -37
2 -71 5 -76 8 -4 3 -8 86 -8 184 0 202 -1 199 78 200 32 0 49 -6 67 -25z
m1643 -17 c15 -15 17 -301 2 -329 -9 -16 -22 -19 -83 -19 -44 0 -78 5 -85 12
-8 8 -12 60 -12 168 0 108 4 160 12 168 7 7 41 12 83 12 42 0 76 -5 83 -12z"/>
</g>
</svg>
