<?xml version="1.0" standalone="no"?>
<!DOCTYPE svg PUBLIC "-//W3C//DTD SVG 20010904//EN"
 "http://www.w3.org/TR/2001/REC-SVG-20010904/DTD/svg10.dtd">
<svg version="1.0" xmlns="http://www.w3.org/2000/svg"
 width="107.000000pt" height="103.000000pt" viewBox="0 0 107.000000 103.000000"
 preserveAspectRatio="xMidYMid meet">

<g transform="translate(0.000000,103.000000) scale(0.100000,-0.100000)"
fill="#000000" stroke="none">
<path d="M472 878 l2 -123 3 108 c3 90 6 108 18 103 8 -3 51 -30 95 -61 l80
-57 0 -174 c0 -96 -2 -174 -5 -174 -2 0 -27 14 -55 30 -28 16 -53 30 -55 30
-3 0 -5 -106 -5 -235 l0 -235 90 0 90 0 0 105 0 105 -45 0 -45 0 2 -67 1 -68
6 60 c6 59 7 60 39 63 l32 3 0 -95 0 -96 -80 0 -80 0 0 221 c0 126 4 219 9
217 5 -1 66 -34 135 -73 l125 -70 1 -152 0 -153 88 2 87 2 -82 3 -82 4 -3 151
-3 150 -75 43 -75 43 -3 186 -2 186 -105 70 -105 70 2 -122z"/>
<path d="M548 773 c-2 -5 0 -48 3 -98 l5 -90 2 98 c2 87 -1 111 -10 90z"/>
<path d="M448 719 l-68 -40 2 -297 3 -297 2 292 3 292 70 42 c39 23 70 43 70
45 0 10 -20 1 -82 -37z"/>
<path d="M238 223 l-3 -118 -80 -6 -80 -5 88 -2 87 -2 0 119 0 120 53 4 52 3
-57 2 -57 2 -3 -117z"/>
</g>
</svg>
