<?xml version="1.0" standalone="no"?>
<!DOCTYPE svg PUBLIC "-//W3C//DTD SVG 20010904//EN"
 "http://www.w3.org/TR/2001/REC-SVG-20010904/DTD/svg10.dtd">
<svg version="1.0" xmlns="http://www.w3.org/2000/svg"
 width="232.000000pt" height="157.000000pt" viewBox="0 0 232.000000 157.000000"
 preserveAspectRatio="xMidYMid meet">

<g transform="translate(0.000000,157.000000) scale(0.100000,-0.100000)"
fill="#000000" stroke="none">
<path d="M590 1095 c-13 -16 -7 -45 9 -45 5 0 13 5 16 10 3 6 52 10 111 10
104 0 104 0 104 -25 l0 -24 -142 -3 -143 -3 -3 -367 -2 -368 241 0 c188 0 240
3 237 13 -3 7 -27 13 -61 15 l-57 3 0 119 0 120 240 0 240 0 0 -120 0 -120
-44 0 c-38 0 -45 3 -50 24 -3 13 -24 40 -47 61 -40 36 -43 37 -105 33 -49 -3
-69 -9 -89 -28 -22 -20 -34 -50 -20 -50 2 0 21 11 41 25 42 29 91 32 134 10
30 -15 60 -61 60 -90 0 -12 14 -15 75 -15 l76 0 -3 153 -3 152 -192 3 -193 2
0 180 0 180 120 0 120 0 0 -154 c0 -150 8 -191 31 -155 11 18 12 310 1 327 -7
9 -45 12 -158 10 l-149 -3 -3 -192 -2 -193 -40 0 -40 0 0 214 c0 203 -1 214
-19 219 -14 3 -21 15 -23 43 l-3 39 -126 3 c-103 2 -128 0 -139 -13z m280
-445 l0 -340 -150 0 -150 0 0 333 c0 184 3 337 7 340 3 4 71 7 150 7 l143 0 0
-340z"/>
<path d="M615 931 c-7 -12 12 -24 25 -16 11 7 4 25 -10 25 -5 0 -11 -4 -15 -9z"/>
<path d="M710 925 c0 -8 7 -15 15 -15 8 0 15 7 15 15 0 8 -7 15 -15 15 -8 0
-15 -7 -15 -15z"/>
<path d="M800 925 c0 -8 7 -15 15 -15 8 0 15 7 15 15 0 8 -7 15 -15 15 -8 0
-15 -7 -15 -15z"/>
<path d="M620 836 c0 -9 7 -16 16 -16 17 0 14 22 -4 28 -7 2 -12 -3 -12 -12z"/>
<path d="M710 836 c0 -9 7 -16 16 -16 17 0 14 22 -4 28 -7 2 -12 -3 -12 -12z"/>
<path d="M800 836 c0 -9 7 -16 16 -16 17 0 14 22 -4 28 -7 2 -12 -3 -12 -12z"/>
<path d="M620 734 c0 -17 22 -14 28 4 2 7 -3 12 -12 12 -9 0 -16 -7 -16 -16z"/>
<path d="M710 734 c0 -9 5 -14 12 -12 18 6 21 28 4 28 -9 0 -16 -7 -16 -16z"/>
<path d="M800 734 c0 -17 22 -14 28 4 2 7 -3 12 -12 12 -9 0 -16 -7 -16 -16z"/>
<path d="M615 651 c-7 -12 12 -24 25 -16 11 7 4 25 -10 25 -5 0 -11 -4 -15 -9z"/>
<path d="M710 645 c0 -8 7 -15 15 -15 8 0 15 7 15 15 0 8 -7 15 -15 15 -8 0
-15 -7 -15 -15z"/>
<path d="M800 645 c0 -8 7 -15 15 -15 8 0 15 7 15 15 0 8 -7 15 -15 15 -8 0
-15 -7 -15 -15z"/>
<path d="M622 556 c1 -10 8 -17 13 -17 15 1 12 24 -3 29 -9 3 -13 -2 -10 -12z"/>
<path d="M715 560 c-4 -6 -3 -16 3 -22 6 -6 12 -6 17 2 4 6 3 16 -3 22 -6 6
-12 6 -17 -2z"/>
<path d="M805 560 c-4 -6 -3 -16 3 -22 6 -6 12 -6 17 2 4 6 3 16 -3 22 -6 6
-12 6 -17 -2z"/>
<path d="M620 455 c0 -9 5 -15 11 -13 6 2 11 8 11 13 0 5 -5 11 -11 13 -6 2
-11 -4 -11 -13z"/>
<path d="M710 454 c0 -17 22 -14 28 4 2 7 -3 12 -12 12 -9 0 -16 -7 -16 -16z"/>
<path d="M800 455 c0 -8 7 -15 15 -15 8 0 15 7 15 15 0 8 -7 15 -15 15 -8 0
-15 -7 -15 -15z"/>
<path d="M1075 890 c-13 -21 12 -31 71 -28 44 2 59 7 59 18 0 19 -119 28 -130
10z"/>
<path d="M1075 810 c-3 -5 0 -13 8 -16 23 -9 122 0 122 11 0 14 -122 19 -130
5z"/>
<path d="M1081 741 c-26 -17 1 -31 59 -31 58 0 85 14 59 31 -8 5 -34 9 -59 9
-25 0 -51 -4 -59 -9z"/>
<path d="M1077 664 c-18 -19 -2 -25 58 -22 36 2 66 8 68 13 2 11 -115 20 -126
9z"/>
</g>
</svg>
