<?xml version="1.0" standalone="no"?>
<!DOCTYPE svg PUBLIC "-//W3C//DTD SVG 20010904//EN"
 "http://www.w3.org/TR/2001/REC-SVG-20010904/DTD/svg10.dtd">
<svg version="1.0" xmlns="http://www.w3.org/2000/svg"
 width="199.000000pt" height="154.000000pt" viewBox="0 0 199.000000 154.000000"
 preserveAspectRatio="xMidYMid meet">

<g transform="translate(0.000000,154.000000) scale(0.100000,-0.100000)"
fill="#000000" stroke="none">
<path d="M1027 1126 c-3 -8 -20 -17 -38 -21 -90 -20 -166 -155 -153 -270 6
-47 4 -55 -10 -55 -11 0 -16 9 -16 30 0 29 -1 30 -50 30 -47 0 -50 2 -50 25 0
14 -4 25 -10 25 -5 0 -10 -11 -10 -25 0 -23 -3 -25 -50 -25 -49 0 -50 -1 -50
-30 0 -27 -3 -30 -30 -30 l-30 0 0 -240 c0 -153 -4 -240 -10 -240 -5 0 -10 -4
-10 -10 0 -6 72 -10 195 -10 123 0 195 4 195 10 0 6 -7 10 -15 10 -10 0 -15
10 -15 30 l0 30 246 0 245 0 -7 23 c-3 12 -18 51 -33 87 -25 62 -26 74 -27
250 -1 204 -5 236 -40 297 -24 42 -94 93 -128 93 -9 0 -19 7 -22 15 -8 19 -70
20 -77 1z m53 -76 c0 -56 -3 -70 -15 -70 -12 0 -15 14 -15 70 0 56 3 70 15 70
12 0 15 -14 15 -70z m-50 -31 c5 -63 5 -64 35 -64 30 0 30 1 33 60 4 68 11 81
40 66 19 -10 19 -13 4 -86 l-15 -75 -61 0 -62 0 -16 75 c-14 69 -14 76 1 85
28 16 36 5 41 -61z m-66 -11 c4 -24 9 -53 13 -65 5 -22 2 -23 -51 -23 -61 0
-65 5 -45 57 12 32 59 84 69 78 4 -3 10 -24 14 -47z m282 -20 c16 -31 18 -68
4 -68 -19 0 -10 -18 11 -23 12 -3 19 -12 17 -19 -4 -10 -50 -13 -214 -13 -179
0 -209 2 -209 15 0 13 27 15 173 18 103 1 172 6 172 12 0 6 -12 10 -26 10 -18
0 -25 4 -21 14 3 7 9 35 12 62 4 27 10 53 12 57 7 11 51 -31 69 -65z m-346
-220 c0 -81 23 -145 60 -171 25 -17 21 -19 -52 -32 l-38 -6 0 141 c0 118 2
140 15 140 12 0 15 -15 15 -72z m310 1 c0 -81 -18 -129 -59 -158 -44 -31 -93
-36 -143 -13 -60 26 -88 82 -88 175 l0 67 145 0 145 0 0 -71z m50 -69 l0 -141
-37 6 c-66 11 -66 12 -31 56 31 38 33 47 36 130 3 68 7 89 18 89 11 0 14 -27
14 -140z m-470 95 c0 -8 -7 -15 -15 -15 -8 0 -15 -4 -15 -10 0 -5 18 -10 40
-10 l40 0 0 -230 0 -230 -30 0 -30 0 0 70 c0 54 4 72 15 76 39 15 5 24 -95 24
-100 0 -134 -9 -95 -24 11 -4 15 -22 15 -76 l0 -70 -30 0 -30 0 0 230 0 230
85 0 c50 0 85 4 85 10 0 6 -27 10 -60 10 -47 0 -60 3 -60 15 0 12 17 15 90 15
73 0 90 -3 90 -15z m310 -250 c-7 -8 -23 -15 -35 -15 -12 0 -28 7 -35 15 -11
13 -6 15 35 15 41 0 46 -2 35 -15z m-150 -21 c-8 -19 -7 -31 2 -42 7 -8 11
-26 10 -39 -2 -13 2 -31 8 -39 11 -12 4 -14 -44 -14 l-57 0 3 72 c3 72 3 73
33 79 54 12 55 11 45 -17z m71 -57 c9 -42 13 -77 10 -77 -19 0 -50 47 -44 68
3 12 1 28 -5 35 -13 16 -4 59 11 54 6 -2 19 -38 28 -80z m133 57 c4 -14 2 -32
-4 -39 -7 -8 -9 -22 -6 -33 4 -12 -2 -26 -19 -42 -23 -22 -25 -22 -25 -4 0 10
4 35 9 54 5 19 12 47 15 63 8 34 22 35 30 1z m112 0 c13 -7 30 -39 42 -74 l21
-61 -37 3 c-30 2 -38 7 -40 26 -2 12 -9 22 -16 22 -9 0 -12 -9 -8 -25 4 -24 2
-25 -38 -25 -40 0 -42 1 -28 18 10 11 13 24 8 37 -5 13 -2 26 6 36 11 12 12
23 4 43 -10 27 -10 27 28 20 20 -3 47 -12 58 -20z m-181 -71 c-12 -81 -26 -79
-40 5 -7 41 -6 42 20 42 27 0 27 -1 20 -47z m-397 -81 c3 -71 3 -72 -23 -72
-24 0 -25 2 -25 68 0 72 4 85 30 80 11 -3 16 -20 18 -76z m70 0 c3 -71 3 -72
-23 -72 -24 0 -25 2 -25 68 0 72 4 85 30 80 11 -3 16 -20 18 -76z"/>
<path d="M973 803 c-15 -6 -17 -49 -3 -58 33 -20 65 26 38 53 -13 13 -16 13
-35 5z"/>
<path d="M1119 794 c-15 -18 -2 -47 24 -52 25 -5 40 33 21 52 -19 20 -28 20
-45 0z"/>
<path d="M1002 664 c2 -9 16 -26 31 -38 26 -19 30 -19 54 -6 30 17 51 46 40
56 -4 4 -14 -2 -23 -14 -19 -28 -60 -29 -76 -2 -15 24 -31 26 -26 4z"/>
<path d="M590 665 l0 -55 110 0 110 0 0 55 0 55 -110 0 -110 0 0 -55z m200 5
l0 -30 -90 0 c-88 0 -90 1 -90 23 0 13 3 27 7 30 3 4 44 7 90 7 l83 0 0 -30z"/>
<path d="M590 570 c0 -6 43 -10 110 -10 67 0 110 4 110 10 0 6 -43 10 -110 10
-67 0 -110 -4 -110 -10z"/>
<path d="M590 515 c0 -12 19 -15 110 -15 91 0 110 3 110 15 0 12 -19 15 -110
15 -91 0 -110 -3 -110 -15z"/>
</g>
</svg>
