<?xml version="1.0" standalone="no"?>
<!DOCTYPE svg PUBLIC "-//W3C//DTD SVG 20010904//EN"
 "http://www.w3.org/TR/2001/REC-SVG-20010904/DTD/svg10.dtd">
<svg version="1.0" xmlns="http://www.w3.org/2000/svg"
 width="177.000000pt" height="142.000000pt" viewBox="0 0 177.000000 142.000000"
 preserveAspectRatio="xMidYMid meet">

<g transform="translate(0.000000,142.000000) scale(0.100000,-0.100000)"
fill="#000000" stroke="none">
<path d="M0 710 l0 -710 885 0 885 0 0 710 0 710 -885 0 -885 0 0 -710z m1037
-2 c50 -50 53 -55 53 -103 0 -28 6 -57 13 -65 6 -7 -14 1 -45 18 -32 18 -60
32 -63 32 -3 0 -5 -58 -5 -130 l0 -129 128 -4 127 -3 -132 -2 -132 -2 -3 141
-3 141 -100 59 c-55 32 -106 58 -112 59 -10 0 -13 -46 -13 -200 l0 -200 -90 0
-90 0 0 110 0 110 -35 0 -35 0 -2 -107 -2 -108 -3 103 c-3 71 -7 102 -16 102
-7 0 -6 4 3 10 8 5 30 10 48 10 31 0 32 2 32 39 0 39 2 40 92 97 l91 58 49
-27 49 -28 62 35 c34 18 66 34 72 35 5 0 33 -22 62 -51z m-609 -199 c-15 -8
-18 -25 -18 -99 l0 -90 -37 2 c-37 1 -37 1 -5 5 l32 4 0 89 c0 86 4 97 35 99
6 0 2 -4 -7 -10z"/>
<path d="M990 675 l0 -70 40 -22 c21 -13 41 -23 44 -23 4 0 6 22 6 48 0 44 -4
52 -45 92 l-45 44 0 -69z"/>
</g>
</svg>
