<?xml version="1.0" standalone="no"?>
<!DOCTYPE svg PUBLIC "-//W3C//DTD SVG 20010904//EN"
 "http://www.w3.org/TR/2001/REC-SVG-20010904/DTD/svg10.dtd">
<svg version="1.0" xmlns="http://www.w3.org/2000/svg"
 width="201.000000pt" height="162.000000pt" viewBox="0 0 201.000000 162.000000"
 preserveAspectRatio="xMidYMid meet">

<g transform="translate(0.000000,162.000000) scale(0.100000,-0.100000)"
fill="#000000" stroke="none">
<path d="M725 1166 c-71 -33 -130 -101 -151 -173 -9 -32 -23 -65 -30 -74 -18
-21 -18 -58 1 -65 11 -5 15 -23 15 -73 0 -52 6 -79 24 -116 l25 -48 -29 -28
c-55 -55 -62 -126 -20 -194 28 -46 80 -68 143 -62 43 4 56 10 88 44 27 29 39
53 44 84 6 41 10 45 58 67 29 12 55 22 58 22 4 0 15 -33 24 -72 30 -122 50
-148 119 -148 22 0 45 9 62 24 27 23 28 28 37 168 l10 145 90 39 c101 43 121
66 93 109 -23 35 -49 32 -158 -20 -53 -25 -98 -45 -102 -45 -3 0 -6 23 -6 50
0 28 4 50 9 50 22 0 23 43 2 71 -12 15 -21 36 -21 46 0 32 -46 117 -81 150
-79 75 -206 95 -304 49z m196 -11 c25 -9 61 -29 81 -45 39 -32 88 -120 88
-157 l0 -23 -254 0 -254 0 10 43 c32 144 188 230 329 182z m199 -270 c0 -9 -9
-15 -25 -15 -14 0 -25 -4 -25 -10 0 -5 5 -10 10 -10 6 0 10 -27 10 -60 l0 -61
-147 -70 -148 -70 -30 18 c-16 10 -55 20 -85 23 -53 5 -56 6 -78 50 -18 35
-22 58 -20 105 l3 60 223 3 c136 1 222 6 222 12 0 6 -88 10 -235 10 -202 0
-235 2 -235 15 0 13 38 15 280 15 242 0 280 -2 280 -15z m248 -92 c3 -18 -7
-27 -48 -48 -50 -25 -52 -25 -66 -8 -22 29 -17 39 34 62 56 25 76 23 80 -6z
m-140 -59 c12 -24 10 -26 -35 -46 -27 -12 -142 -63 -257 -115 -115 -51 -215
-93 -222 -93 -8 0 -14 8 -14 18 0 14 61 47 253 139 138 67 255 122 258 122 3
1 11 -10 17 -25z m-55 -196 c-5 -128 -14 -161 -49 -177 -36 -16 -50 -14 -79
12 -18 15 -32 44 -45 97 -24 90 -24 96 -6 103 11 4 20 -17 36 -84 24 -95 42
-119 79 -100 22 12 31 58 31 168 0 76 4 89 31 92 3 1 4 -50 2 -111z m-57 5
c-3 -42 -6 -89 -6 -105 0 -21 -5 -28 -19 -28 -15 0 -23 16 -40 85 -11 46 -21
87 -21 90 0 7 61 33 79 34 11 1 13 -13 7 -76z m-378 51 l37 -16 -30 -14 c-16
-7 -42 -13 -57 -14 -16 0 -37 -9 -48 -20 -41 -41 -12 -120 44 -120 13 0 34 11
47 25 13 14 37 33 53 41 l29 16 -6 -38 c-12 -73 -100 -122 -167 -94 -105 44
-109 191 -6 236 41 18 59 17 104 -2z m-64 -88 c-3 -8 4 -24 15 -35 27 -27 26
-31 -2 -31 -41 0 -62 41 -35 68 16 16 29 15 22 -2z"/>
<path d="M840 1125 c0 -8 5 -15 10 -15 6 0 10 7 10 15 0 8 -4 15 -10 15 -5 0
-10 -7 -10 -15z"/>
<path d="M740 1100 c0 -5 7 -10 15 -10 8 0 15 5 15 10 0 6 -7 10 -15 10 -8 0
-15 -4 -15 -10z"/>
<path d="M910 1085 c0 -8 5 -15 10 -15 6 0 10 7 10 15 0 8 -4 15 -10 15 -5 0
-10 -7 -10 -15z"/>
<path d="M810 1055 c0 -8 7 -15 15 -15 8 0 15 7 15 15 0 8 -7 15 -15 15 -8 0
-15 -7 -15 -15z"/>
<path d="M720 1025 c0 -8 5 -15 10 -15 6 0 10 7 10 15 0 8 -4 15 -10 15 -5 0
-10 -7 -10 -15z"/>
<path d="M870 1025 c0 -8 5 -15 10 -15 6 0 10 7 10 15 0 8 -4 15 -10 15 -5 0
-10 -7 -10 -15z"/>
<path d="M1010 1025 c0 -8 5 -15 10 -15 6 0 10 7 10 15 0 8 -4 15 -10 15 -5 0
-10 -7 -10 -15z"/>
<path d="M950 1000 c0 -5 7 -10 15 -10 8 0 15 5 15 10 0 6 -7 10 -15 10 -8 0
-15 -4 -15 -10z"/>
<path d="M630 985 c0 -8 5 -15 10 -15 6 0 10 7 10 15 0 8 -4 15 -10 15 -5 0
-10 -7 -10 -15z"/>
<path d="M780 970 c0 -5 7 -10 15 -10 8 0 15 5 15 10 0 6 -7 10 -15 10 -8 0
-15 -4 -15 -10z"/>
<path d="M620 800 c0 -5 5 -10 10 -10 6 0 10 5 10 10 0 6 -4 10 -10 10 -5 0
-10 -4 -10 -10z"/>
<path d="M670 800 c0 -6 47 -10 120 -10 73 0 120 4 120 10 0 6 -47 10 -120 10
-73 0 -120 -4 -120 -10z"/>
</g>
</svg>
