<?xml version="1.0" standalone="no"?>
<!DOCTYPE svg PUBLIC "-//W3C//DTD SVG 20010904//EN"
 "http://www.w3.org/TR/2001/REC-SVG-20010904/DTD/svg10.dtd">
<svg version="1.0" xmlns="http://www.w3.org/2000/svg"
 width="202.000000pt" height="165.000000pt" viewBox="0 0 202.000000 165.000000"
 preserveAspectRatio="xMidYMid meet">

<g transform="translate(0.000000,165.000000) scale(0.100000,-0.100000)"
fill="#000000" stroke="none">
<path d="M884 1171 c-67 -41 -103 -121 -85 -187 5 -19 36 -77 69 -127 33 -51
67 -107 76 -124 9 -18 18 -33 20 -33 2 0 25 37 51 81 26 45 60 100 76 122 40
55 53 107 39 157 -12 46 -51 95 -91 115 -40 21 -117 19 -155 -4z m146 -19 c44
-22 80 -75 80 -119 0 -44 -16 -81 -76 -174 -27 -42 -54 -84 -59 -94 -9 -15
-21 -1 -79 91 -82 131 -94 184 -54 244 27 40 79 70 123 70 17 0 46 -8 65 -18z"/>
<path d="M994 1028 c-21 -35 -39 -65 -41 -67 -2 -3 -10 5 -19 17 -16 23 -34
29 -34 12 0 -14 41 -70 51 -70 7 0 99 151 99 163 0 22 -23 -1 -56 -55z"/>
<path d="M619 599 c-44 -39 -83 -77 -86 -84 -8 -23 16 -55 42 -55 23 0 24 -4
27 -62 l3 -63 358 -3 357 -2 0 65 0 65 30 0 c19 0 33 7 40 21 15 28 -2 53 -90
128 -89 77 -121 79 -192 13 l-27 -25 -41 36 c-55 50 -95 50 -150 1 l-40 -36
-40 36 c-63 57 -92 52 -191 -35z m170 20 c38 -29 41 -33 27 -47 -14 -14 -18
-14 -39 6 -13 12 -32 22 -44 22 -11 0 -51 -27 -88 -60 -62 -55 -85 -65 -85
-38 0 12 125 130 149 140 27 11 36 9 80 -23z m217 9 c41 -30 134 -121 134
-130 0 -22 -38 -2 -93 47 -34 30 -71 55 -82 55 -11 0 -49 -25 -83 -55 -59 -51
-92 -68 -92 -46 0 12 114 122 143 138 31 17 40 16 73 -9z m297 -58 c54 -51 69
-71 61 -80 -9 -8 -29 4 -80 49 -38 33 -78 61 -88 61 -11 0 -30 -10 -43 -22
-21 -20 -25 -20 -39 -7 -14 14 -12 18 18 41 65 49 77 46 171 -42z m-539 -13
c14 -11 16 -18 8 -33 -16 -32 2 -64 38 -64 30 0 30 0 30 -56 l0 -55 -32 3
c-31 3 -33 6 -36 46 -3 42 -3 42 -43 42 l-39 0 0 -45 c0 -43 -1 -45 -30 -45
l-30 0 0 70 c0 69 0 70 43 109 45 43 63 49 91 28z m263 -29 c42 -41 43 -43 43
-110 l0 -68 -29 0 c-28 0 -30 3 -33 43 -3 42 -3 42 -43 42 -40 0 -40 0 -43
-42 -3 -40 -5 -43 -33 -43 l-29 0 0 67 c0 66 1 68 42 110 23 24 51 43 62 43
11 0 40 -19 63 -42z m231 1 c42 -39 42 -40 42 -109 l0 -70 -30 0 c-29 0 -30 2
-30 45 l0 45 -39 0 c-40 0 -40 0 -43 -42 -3 -40 -5 -43 -35 -46 l-33 -3 0 55
c0 56 0 56 30 56 35 0 54 32 38 63 -7 14 -5 22 9 33 28 21 45 16 91 -27z
m-508 -149 c0 -20 -5 -30 -15 -30 -10 0 -15 10 -15 30 0 20 5 30 15 30 10 0
15 -10 15 -30z m230 0 c0 -20 -5 -30 -15 -30 -10 0 -15 10 -15 30 0 20 5 30
15 30 10 0 15 -10 15 -30z m230 0 c0 -20 -5 -30 -15 -30 -10 0 -15 10 -15 30
0 20 5 30 15 30 10 0 15 -10 15 -30z"/>
</g>
</svg>
