<?xml version="1.0" standalone="no"?>
<!DOCTYPE svg PUBLIC "-//W3C//DTD SVG 20010904//EN"
 "http://www.w3.org/TR/2001/REC-SVG-20010904/DTD/svg10.dtd">
<svg version="1.0" xmlns="http://www.w3.org/2000/svg"
 width="208.000000pt" height="150.000000pt" viewBox="0 0 208.000000 150.000000"
 preserveAspectRatio="xMidYMid meet">

<g transform="translate(0.000000,150.000000) scale(0.100000,-0.100000)"
fill="#000000" stroke="none">
<path d="M785 1173 c-63 -22 -104 -60 -135 -126 -27 -55 -29 -67 -24 -131 7
-90 20 -125 50 -132 13 -3 24 -10 24 -14 0 -5 11 -22 25 -38 29 -34 24 -42
-24 -42 -52 0 -103 -29 -123 -70 -14 -27 -18 -60 -18 -143 0 -60 5 -117 10
-128 10 -18 26 -19 435 -19 l425 0 0 180 0 180 -228 0 c-126 0 -232 3 -235 6
-4 4 5 20 18 36 14 16 25 33 25 38 0 4 11 11 24 14 30 7 43 42 50 132 5 64 3
76 -24 131 -32 68 -72 103 -140 127 -54 19 -82 19 -135 -1z m85 -53 c0 -38 -4
-50 -15 -50 -11 0 -15 12 -15 50 0 38 4 50 15 50 11 0 15 -12 15 -50z m-60 -8
c0 -49 19 -75 51 -70 21 3 24 8 27 56 3 43 6 52 22 52 29 0 31 -13 12 -76
l-18 -59 -48 0 -49 0 -19 55 c-20 58 -18 80 7 80 11 0 15 -11 15 -38z m198
-22 c27 -32 45 -74 33 -78 -19 -6 -12 -22 10 -22 14 0 19 -5 17 -17 -3 -17
-21 -18 -213 -18 -192 0 -210 1 -213 18 -3 16 10 17 172 17 111 0 176 4 176
10 0 6 -13 10 -30 10 -35 0 -34 -3 -14 66 17 58 23 59 62 14z m-244 -17 c9
-26 16 -50 16 -55 0 -4 -27 -8 -60 -8 -33 0 -60 3 -60 8 0 13 41 77 58 90 24
19 29 15 46 -35z m-74 -152 c0 -5 -7 -11 -15 -15 -9 -3 -15 0 -15 9 0 8 7 15
15 15 8 0 15 -4 15 -9z m310 -53 c0 -109 -57 -178 -145 -178 -88 0 -145 69
-145 178 l0 62 145 0 145 0 0 -62z m50 47 c0 -9 -6 -12 -15 -9 -8 4 -15 10
-15 15 0 5 7 9 15 9 8 0 15 -7 15 -15z m-360 -71 c0 -24 -4 -34 -12 -32 -24 8
-22 68 2 68 5 0 10 -16 10 -36z m355 1 c0 -16 -6 -30 -12 -32 -9 -3 -13 7 -13
32 0 25 4 35 13 33 6 -3 12 -17 12 -33z m-255 -190 c0 -8 11 -22 26 -31 30
-20 18 -40 -20 -30 -26 6 -56 31 -56 46 0 14 31 41 41 35 5 -4 9 -13 9 -20z
m174 -26 c-3 -5 -14 1 -24 13 -10 13 -16 27 -12 32 3 5 13 -1 24 -13 10 -13
15 -27 12 -32z m-241 22 c-7 -27 12 -56 45 -70 24 -10 28 -17 24 -40 -2 -16 1
-38 7 -49 21 -39 5 -52 -65 -52 l-64 0 0 55 c0 30 -4 55 -10 55 -5 0 -10 -9
-10 -20 0 -16 -7 -20 -30 -20 -29 0 -30 1 -30 48 0 67 42 107 117 111 16 1 20
-3 16 -18z m159 -4 c-21 -20 -56 -17 -65 7 -4 9 7 13 40 13 44 0 44 -1 25 -20z
m210 -14 c24 -23 28 -35 28 -85 0 -58 0 -58 -30 -58 -27 0 -30 3 -30 30 0 17
-4 30 -10 30 -6 0 -10 -40 -10 -100 l0 -100 -95 0 -95 0 0 29 c0 16 -7 34 -15
41 -22 19 -19 27 23 47 25 12 43 31 57 60 11 23 33 53 49 68 21 19 27 32 23
52 -5 24 -4 25 37 19 24 -4 52 -18 68 -33z m216 0 c-3 -27 -6 -28 -65 -31 -35
-2 -63 -7 -63 -12 0 -6 7 -10 15 -10 10 0 15 -10 15 -30 0 -27 -3 -30 -30 -30
-27 0 -30 3 -30 33 0 18 -9 49 -19 70 l-19 37 100 0 99 0 -3 -27z m92 -3 c0
-28 -3 -30 -35 -30 -32 0 -35 2 -35 30 0 28 3 30 35 30 32 0 35 -2 35 -30z
m-494 -65 c-27 -67 -47 -86 -73 -69 -34 21 -26 48 27 98 65 60 79 51 46 -29z
m494 -15 l0 -30 -85 0 -85 0 0 30 0 30 85 0 85 0 0 -30z m-92 -82 l3 -28 -80
0 -81 0 0 30 0 31 78 -3 c76 -3 77 -3 80 -30z m92 -43 l0 -75 -85 0 -85 0 0
30 0 30 70 0 c56 0 70 3 70 15 0 8 -9 15 -20 15 -16 0 -20 7 -20 30 0 28 3 30
35 30 l35 0 0 -75z m-750 20 l0 -35 85 0 c67 0 87 -3 91 -15 14 -35 -14 -45
-127 -45 l-109 0 0 65 0 65 30 0 c28 0 30 -3 30 -35z m470 -35 l0 -60 -30 0
-30 0 0 60 0 60 30 0 30 0 0 -60z m90 -30 c0 -27 -3 -30 -30 -30 -27 0 -30 3
-30 30 0 27 3 30 30 30 27 0 30 -3 30 -30z"/>
<path d="M754 896 c-10 -26 4 -48 28 -44 17 2 23 10 23 28 0 18 -6 26 -23 28
-13 2 -25 -3 -28 -12z"/>
<path d="M904 896 c-10 -26 4 -48 28 -44 17 2 23 10 23 28 0 18 -6 26 -23 28
-13 2 -25 -3 -28 -12z m36 -16 c0 -5 -4 -10 -10 -10 -5 0 -10 5 -10 10 0 6 5
10 10 10 6 0 10 -4 10 -10z"/>
<path d="M790 775 c0 -23 37 -55 65 -55 28 0 65 32 65 55 0 21 -5 19 -34 -10
-22 -22 -29 -24 -46 -15 -12 6 -24 18 -27 26 -7 19 -23 18 -23 -1z"/>
</g>
</svg>
