<?xml version="1.0" standalone="no"?>
<!DOCTYPE svg PUBLIC "-//W3C//DTD SVG 20010904//EN"
 "http://www.w3.org/TR/2001/REC-SVG-20010904/DTD/svg10.dtd">
<svg version="1.0" xmlns="http://www.w3.org/2000/svg"
 width="193.000000pt" height="150.000000pt" viewBox="0 0 193.000000 150.000000"
 preserveAspectRatio="xMidYMid meet">

<g transform="translate(0.000000,150.000000) scale(0.100000,-0.100000)"
fill="#000000" stroke="none">
<path d="M887 1162 c-71 -74 4 -195 100 -161 102 35 75 189 -32 189 -32 0 -47
-6 -68 -28z m118 -17 c14 -13 25 -36 25 -50 0 -33 -42 -75 -75 -75 -14 0 -37
11 -50 25 -14 13 -25 36 -25 50 0 14 11 37 25 50 13 14 36 25 50 25 14 0 37
-11 50 -25z"/>
<path d="M524 1037 c-2 -7 -3 -71 -2 -143 l3 -129 51 -3 51 -3 -5 -106 c-5
-102 -7 -111 -53 -211 -27 -57 -49 -106 -49 -108 0 -2 28 -4 63 -4 l62 0 50
98 c34 67 51 114 54 152 l6 55 38 -51 c37 -52 37 -52 37 -153 l0 -101 60 0 60
0 0 100 c0 55 2 100 5 100 3 0 39 -23 81 -50 l74 -51 -21 -28 c-11 -16 -19
-37 -17 -47 3 -17 16 -19 161 -22 l157 -3 0 25 c0 28 -56 102 -85 112 -11 4
-26 15 -33 25 -16 23 -59 25 -82 4 -14 -13 -24 -9 -90 35 -88 58 -87 55 -98
260 l-7 135 -120 62 -120 62 -113 1 c-84 0 -114 -3 -118 -13z m341 -69 l105
-53 1 -80 c0 -44 6 -116 13 -160 15 -88 14 -95 -14 -95 -26 0 -51 83 -57 198
-3 50 -10 92 -15 92 -8 0 -32 -48 -58 -121 -13 -36 -12 -38 38 -110 l52 -73 0
-108 0 -108 -40 0 -40 0 0 101 0 100 -57 72 -58 72 -6 -80 c-5 -70 -11 -92
-52 -172 -46 -91 -48 -93 -82 -93 -19 0 -35 4 -35 9 0 4 20 51 45 104 42 89
45 103 45 177 0 69 6 94 40 186 22 59 40 113 40 121 0 11 -15 13 -67 11 l-68
-3 -3 -82 c-3 -75 -5 -83 -22 -83 -19 0 -20 7 -20 115 l0 115 105 0 105 0 105
-52z m-165 -38 c0 -9 -30 -90 -36 -98 -1 -2 -12 1 -23 8 -17 8 -21 20 -21 55
l0 45 40 0 c22 0 40 -4 40 -10z m-50 -137 c0 -20 -24 -11 -28 10 -2 12 1 15
12 11 9 -3 16 -13 16 -21z m244 -122 c-7 -8 -33 33 -34 52 0 10 5 28 12 40 11
20 13 17 19 -33 4 -30 5 -57 3 -59z m186 -158 c47 -30 67 -50 61 -56 -7 -7
-38 8 -91 43 -44 29 -80 54 -80 56 0 16 52 -4 110 -43z m176 -48 c9 -14 25
-25 36 -25 11 0 22 -8 25 -19 3 -11 13 -21 24 -24 11 -3 19 -14 19 -26 0 -20
-5 -21 -130 -21 -125 0 -130 1 -130 21 0 12 8 23 19 26 11 3 21 13 24 24 3 11
14 19 25 19 11 0 27 11 36 25 9 14 21 25 26 25 5 0 17 -11 26 -25z"/>
<path d="M1230 410 c0 -5 7 -10 15 -10 8 0 15 5 15 10 0 6 -7 10 -15 10 -8 0
-15 -4 -15 -10z"/>
<path d="M1170 400 c0 -5 7 -10 15 -10 8 0 15 5 15 10 0 6 -7 10 -15 10 -8 0
-15 -4 -15 -10z"/>
</g>
</svg>
